# xmcd
#
# Track frame offsets: 
#        150
#        13911
#        27633
#        40031
#        51346
#        63895
#        77099
#        89481
#        102277
#        114478
#        126347
#        139797
#        152724
#        164038
#        176274
#        189488
#        201150
#        211820
#        223131
#        234763
#        246500
#        258455
#
# Disc length: 3605 seconds
#
# Revision: 0
# Processed by: cddbd v1.5.2PL0 Copyright (c) Steve Scherf et al.
# Submitted via: ExactAudioCopy v0.99pb4
#
DISCID=3f0e1316
DTITLE=Sonny Boy Williamson - Down And Out Blues [CD2]
DYEAR=2010
DGENRE=Blues
TTITLE0=Crazy 'Bout You, Baby
TTITLE1=Eyesight To The Blind
TTITLE2=Cool, Cool Blues
TTITLE3=Do It If You Wanta
TTITLE4=Come On Back Home
TTITLE5=Stop Crying
TTITLE6=I Cross My Heart
TTITLE7=West Memphis Blues
TTITLE8=Pontiac Blues
TTITLE9=Sonny Boys' Christmas Blues
TTITLE10=Mighty Long Time
TTITLE11=Nine Below Zero
TTITLE12=Mr Down Child
TTITLE13=Stop Now Baby
TTITLE14=Cat Hop
TTITLE15=Too Close Together
TTITLE16=Gettin' Out Of Town
TTITLE17=She Brought Life Back To The Dead
TTITLE18=Going In Your Direction
TTITLE19=Red Hot Kisses
TTITLE20=Empty Bedroom
TTITLE21=From The Bottom
EXTD=
EXTT0=
EXTT1=
EXTT2=
EXTT3=
EXTT4=
EXTT5=
EXTT6=
EXTT7=
EXTT8=
EXTT9=
EXTT10=
EXTT11=
EXTT12=
EXTT13=
EXTT14=
EXTT15=
EXTT16=
EXTT17=
EXTT18=
EXTT19=
EXTT20=
EXTT21=
PLAYORDER=
